<?xml version="1.0" encoding="UTF-8" standalone="no"?>
<svg
   xmlns:dc="http://purl.org/dc/elements/1.1/"
   xmlns:cc="http://creativecommons.org/ns#"
   xmlns:rdf="http://www.w3.org/1999/02/22-rdf-syntax-ns#"
   xmlns:svg="http://www.w3.org/2000/svg"
   xmlns="http://www.w3.org/2000/svg"
   xmlns:sodipodi="http://sodipodi.sourceforge.net/DTD/sodipodi-0.dtd"
   xmlns:inkscape="http://www.inkscape.org/namespaces/inkscape"
   viewBox="0 0 448 384"
   version="1.1"
   id="svg4"
   sodipodi:docname="bicycle.svg"
   width="448"
   height="384"
   inkscape:version="0.92.4 (5da689c313, 2019-01-14)">
  <metadata
     id="metadata10">
    <rdf:RDF>
      <cc:Work
         rdf:about="">
        <dc:format>image/svg+xml</dc:format>
        <dc:type
           rdf:resource="http://purl.org/dc/dcmitype/StillImage" />
      </cc:Work>
    </rdf:RDF>
  </metadata>
  <defs
     id="defs8" />
  <sodipodi:namedview
     pagecolor="#ffffff"
     bordercolor="#666666"
     borderopacity="1"
     objecttolerance="10"
     gridtolerance="10"
     guidetolerance="10"
     inkscape:pageopacity="0"
     inkscape:pageshadow="2"
     inkscape:window-width="640"
     inkscape:window-height="480"
     id="namedview6"
     showgrid="false"
     inkscape:zoom="0.4609375"
     inkscape:cx="224"
     inkscape:cy="201.41344"
     inkscape:window-x="0"
     inkscape:window-y="0"
     inkscape:window-maximized="0"
     inkscape:current-layer="svg4" />
  <path
     d="m 298.666,67.202 c 18.668,0 33.598,-14.935 33.598,-33.601 C 332.264,14.935 317.334,0 298.666,0 280,0 265.07,14.935 265.07,33.601 c 0,18.666 14.93,33.601 33.596,33.601 z m 56,130.132 c -51.332,0 -93.332,42 -93.332,93.333 0,51.333 42,93.333 93.332,93.333 C 406,384 448,342 448,290.667 c 0,-51.333 -42,-93.333 -93.334,-93.333 z m 0,158.666 c -36.402,0 -65.332,-28.93 -65.332,-65.333 0,-36.403 28.93,-65.333 65.332,-65.333 36.404,0 65.334,28.93 65.334,65.333 C 420,327.07 391.07,356 354.666,356 Z M 273.597,160 H 352 v -32 h -58.845 l -34.62,-60.134 c -5.605,-9.333 -15.869,-15.864 -27.07,-15.864 -8.399,0 -16.798,3.732 -22.399,9.333 L 137.334,130.4 c -5.601,5.601 -9.333,14 -9.333,22.399 0,12.131 9.202,21.465 18.535,27.065 L 208,218.134 V 304 h 32 V 192 l -39.333,-32 42.929,-44.533 z M 93.333,197.334 C 42,197.334 0,239.334 0,290.667 0,342 42,384 93.333,384 c 51.333,0 93.333,-42 93.333,-93.333 0,-51.333 -41.999,-93.333 -93.333,-93.333 z m 0,158.666 C 56.934,356 28,327.07 28,290.667 c 0,-36.403 28.934,-65.333 65.333,-65.333 36.399,0 65.333,28.93 65.333,65.333 0,36.403 -28.934,65.333 -65.333,65.333 z"
     id="path2"
     inkscape:connector-curvature="0" />
</svg>
