<svg xmlns="http://www.w3.org/2000/svg" xmlns:xlink="http://www.w3.org/1999/xlink" width="24" height="15" viewBox="0 0 24 15"><defs><path id="e3kwa" d="M1469.615 3969c-4.205 0-7.614-3.358-7.614-7.5 0-4.142 3.409-7.5 7.614-7.5 1.98 0 3.783.746 5.137 1.966l-2.244 2.164a4.502 4.502 0 0 0-2.893-1.044c-2.475 0-4.482 1.976-4.482 4.414 0 2.438 2.007 4.414 4.482 4.414a4.481 4.481 0 0 0 4.19-2.848h-4.286v-3.133h7.543c.11.506.167 1.03.167 1.567 0 4.142-3.409 7.5-7.614 7.5zm16.385-6.93h-2.65v2.61h-1.928v-2.61h-2.65v-1.9h2.65v-2.61h1.928v2.61h2.65z"/></defs><g><g transform="translate(-1462 -3954)"><use fill="#a8acb9" xlink:href="#e3kwa"/></g></g></svg>