<?xml version="1.0" encoding="UTF-8" standalone="no"?>
<svg
   xmlns:dc="http://purl.org/dc/elements/1.1/"
   xmlns:cc="http://creativecommons.org/ns#"
   xmlns:rdf="http://www.w3.org/1999/02/22-rdf-syntax-ns#"
   xmlns:svg="http://www.w3.org/2000/svg"
   xmlns="http://www.w3.org/2000/svg"
   xmlns:sodipodi="http://sodipodi.sourceforge.net/DTD/sodipodi-0.dtd"
   xmlns:inkscape="http://www.inkscape.org/namespaces/inkscape"
   aria-hidden="true"
   focusable="false"
   data-prefix="fab"
   data-icon="pinterest"
   class="svg-inline--fa fa-pinterest fa-w-16"
   role="img"
   viewBox="0 0 496 496"
   version="1.1"
   id="svg4"
   sodipodi:docname="pinterest-fa.svg"
   width="496"
   height="496"
   inkscape:version="0.92.4 (5da689c313, 2019-01-14)">
  <metadata
     id="metadata10">
    <rdf:RDF>
      <cc:Work
         rdf:about="">
        <dc:format>image/svg+xml</dc:format>
        <dc:type
           rdf:resource="http://purl.org/dc/dcmitype/StillImage" />
      </cc:Work>
    </rdf:RDF>
  </metadata>
  <defs
     id="defs8" />
  <sodipodi:namedview
     pagecolor="#ffffff"
     bordercolor="#666666"
     borderopacity="1"
     objecttolerance="10"
     gridtolerance="10"
     guidetolerance="10"
     inkscape:pageopacity="0"
     inkscape:pageshadow="2"
     inkscape:window-width="640"
     inkscape:window-height="480"
     id="namedview6"
     showgrid="false"
     inkscape:zoom="0.4609375"
     inkscape:cx="75.417051"
     inkscape:cy="292.31133"
     inkscape:window-x="0"
     inkscape:window-y="0"
     inkscape:window-maximized="0"
     inkscape:current-layer="svg4" />
  <path
     d="m 496,248 c 0,137 -111,248 -248,248 -25.6,0 -50.2,-3.9 -73.4,-11.1 10.1,-16.5 25.2,-43.5 30.8,-65 3,-11.6 15.4,-59 15.4,-59 8.1,15.4 31.7,28.5 56.8,28.5 74.8,0 128.7,-68.8 128.7,-154.3 0,-81.9 -66.9,-143.2 -152.9,-143.2 -107,0 -163.9,71.8 -163.9,150.1 0,36.4 19.4,81.7 50.3,96.1 4.7,2.2 7.2,1.2 8.3,-3.3 0.8,-3.4 5,-20.3 6.9,-28.1 0.6,-2.5 0.3,-4.7 -1.7,-7.1 C 143.2,287.1 135,264.3 135,243 c 0,-54.7 41.4,-107.6 112,-107.6 60.9,0 103.6,41.5 103.6,100.9 0,67.1 -33.9,113.6 -78,113.6 -24.3,0 -42.6,-20.1 -36.7,-44.8 7,-29.5 20.5,-61.3 20.5,-82.6 0,-19 -10.2,-34.9 -31.4,-34.9 -24.9,0 -44.9,25.7 -44.9,60.2 0,22 7.4,36.8 7.4,36.8 0,0 -24.5,103.8 -29,123.2 -5,21.4 -3,51.6 -0.9,71.2 C 65.4,442.9 0,353.1 0,248 0,111 111,0 248,0 385,0 496,111 496,248 Z"
     id="path2"
     inkscape:connector-curvature="0"
     style="fill:currentColor" />
</svg>
