<?xml version="1.0" encoding="utf-8"?><svg xmlns="http://www.w3.org/2000/svg" xmlns:xlink="http://www.w3.org/1999/xlink"><symbol viewBox="0 0 234.668 448" id="attach" xmlns="http://www.w3.org/2000/svg"><path d="M202.668 96v234.666c0 46.938-38.396 85.334-85.334 85.334-46.937 0-85.333-38.396-85.333-85.334V85.334C32.001 55.469 55.469 32 85.334 32c29.864 0 53.333 23.469 53.333 53.334v245.333c0 11.729-9.605 21.333-21.334 21.333S96 342.396 96 330.667V128H64v202.667C64.001 360.531 87.469 384 117.334 384c29.865 0 53.334-23.469 53.334-53.333V85.334C170.668 38.401 132.272 0 85.334 0S0 38.401 0 85.334v245.332C.001 395.729 52.272 448 117.334 448c65.062 0 117.334-52.271 117.334-117.334V96z"/></symbol><symbol viewBox="0 0 448 384" id="bicycle" xmlns="http://www.w3.org/2000/svg"><path d="M298.666 67.202c18.668 0 33.598-14.935 33.598-33.601C332.264 14.935 317.334 0 298.666 0 280 0 265.07 14.935 265.07 33.601c0 18.666 14.93 33.601 33.596 33.601zm56 130.132c-51.332 0-93.332 42-93.332 93.333s42 93.333 93.332 93.333C406 384 448 342 448 290.667s-42-93.333-93.334-93.333zm0 158.666c-36.402 0-65.332-28.93-65.332-65.333s28.93-65.333 65.332-65.333c36.404 0 65.334 28.93 65.334 65.333S391.07 356 354.666 356zm-81.069-196H352v-32h-58.845l-34.62-60.134c-5.605-9.333-15.869-15.864-27.07-15.864-8.399 0-16.798 3.732-22.399 9.333L137.334 130.4c-5.601 5.601-9.333 14-9.333 22.399 0 12.131 9.202 21.465 18.535 27.065L208 218.134V304h32V192l-39.333-32 42.929-44.533zM93.333 197.334C42 197.334 0 239.334 0 290.667S42 384 93.333 384s93.333-42 93.333-93.333-41.999-93.333-93.333-93.333zm0 158.666C56.934 356 28 327.07 28 290.667s28.934-65.333 65.333-65.333 65.333 28.93 65.333 65.333S129.732 356 93.333 356z"/></symbol><symbol viewBox="0 0 830.6 875.175" id="bulb" xmlns="http://www.w3.org/2000/svg"><path d="M415.3 89.4c9.7 0 17.7-7.9 17.7-17.9V17.9C433 8 425 0 415.3 0s-17.7 8.1-17.7 17.9v53.6c0 10 8 17.9 17.7 17.9zm-187.7 37.8c3.3 5.7 9.3 9 15.4 9 3 0 6-.8 8.8-2.5 8.5-4.9 11.3-15.8 6.5-24.4l-26.5-46.5c-4.9-8.6-15.7-11.5-24.2-6.6-8.4 4.9-11.3 15.9-6.4 24.4zM125.7 230.5l-45.9-26.8c-8.4-4.9-19.3-2-24.2 6.6-4.9 8.5-1.9 19.4 6.5 24.4l45.9 26.8c2.8 1.7 5.8 2.5 8.8 2.5 6.1 0 12-3.2 15.4-9 4.8-8.6 1.9-19.5-6.5-24.5zm-55.1 172H17.7C8 402.5 0 410.6 0 420.4c0 9.9 7.9 17.9 17.7 17.9h52.9c9.8 0 17.7-8.1 17.7-17.9-.1-9.8-7.9-17.9-17.7-17.9zm742.3 0H760c-9.7 0-17.7 8.1-17.7 17.9 0 9.9 7.9 17.9 17.7 17.9h52.9c9.7 0 17.7-8.1 17.7-17.9 0-9.8-8-17.9-17.7-17.9zm-38-192.2c-4.9-8.6-15.7-11.5-24.2-6.6l-45.9 26.8c-8.4 5-11.4 15.9-6.5 24.4 3.3 5.7 9.3 9 15.4 9 3 0 6-.8 8.8-2.5l45.9-26.8c8.6-4.8 11.4-15.9 6.5-24.3zm-196.1-76.6c2.8 1.7 5.9 2.5 8.8 2.5 6.1 0 12-3.2 15.4-8.8l26.4-46.5c4.9-8.5 2-19.5-6.5-24.4-8.4-4.9-19.2-2-24.1 6.6l-26.5 46.5c-4.8 8.3-1.9 19.2 6.5 24.1zM394.9 494c1.8 11.9 8.3 15.2 20.4 15.2 12 0 18.6-3.2 20.4-15.2l14.4-95.9c.9-6.6 1.9-13.1 1.9-19.3v-47.6c0-20.9-13.5-31.5-36.6-31.5s-36.6 10.6-36.6 31.5v47.6c0 6.1.9 12.7 1.9 19.3zm20.4 42c-20.8 0-38 17.7-38 39.3 0 21.6 17.2 39.4 38 39.4s38-17.8 38-39.4c0-21.6-17.2-39.3-38-39.3zm-65.9-361c-114.5 31.2-183.8 109.1-202.6 224.8-18.4 112.9 21 206.7 113.3 277.2 14.9 11.4 31.8 26 37.2 42.5 14.8 45.5 44.1 60.8 88.7 55.7 10.1-1.1 20.3-.2 30.5-.2h41.6c43 0 53.5-8.2 71.8-46.6 8.1-16.9 18.7-35.3 33.3-45.9C651.5 619 692.4 534 687.7 425.7 680.5 256.3 512.6 130.5 349.4 175zm188.9 458.8c-19.3 14.5-36.5 33.8-49.7 54.1-29.6 45.4-112.3 47.6-143.6 3.9-16.8-23.5-36.9-45.9-59.5-63.6-77.3-60.4-108.8-164.1-75.7-258.9 32.5-93 118.1-151.6 217.4-148.6 113.2 3.3 207.3 105.9 207.2 233.5-1.5 70.3-33.2 132.2-96.1 179.6zm-64.3 176c-19.2-1.3-38.5-.4-57.8-.4-19.3 0-38.6-.9-57.8.4-7.3.5-17.6 4.1-20.4 9.5-2.6 5.1 1 15.7 5.1 21.5 32.4 45.7 113.7 45.9 146.3.2 4.2-5.9 7.8-16.5 5.2-21.6-2.9-5.4-13.2-9.1-20.6-9.6z"/></symbol><symbol viewBox="0 0 384 384" id="check" xmlns="http://www.w3.org/2000/svg"><path d="M104.531 151.469l-29.864 29.864 96 96L384 64l-29.864-29.864-183.469 182.395zm236.802 189.864H42.667V42.667H256V0H42.667C19.198 0 0 19.198 0 42.667v298.666C0 364.802 19.198 384 42.667 384h298.666C364.802 384 384 364.802 384 341.333V170.667h-42.667z"/></symbol><symbol class="esvg-inline--fa efa-dribbble efa-w-16" viewBox="0 0 496 496" id="dribbble-fa" xmlns="http://www.w3.org/2000/svg"><path d="M248 0C111.252 0 0 111.252 0 248s111.252 248 248 248 248-111.252 248-248S384.748 0 248 0zm163.97 114.366c29.503 36.046 47.369 81.957 47.835 131.955-6.984-1.477-77.018-15.682-147.502-6.818-5.752-14.041-11.181-26.393-18.617-41.614 78.321-31.977 113.818-77.482 118.284-83.523zM388.421 89.87c-3.81 5.427-35.697 48.286-111.021 76.519-34.712-63.776-73.185-116.168-79.04-124.008 67.176-16.193 137.966 1.27 190.061 47.489zm-230.48-33.25c5.585 7.659 43.438 60.116 78.537 122.509-99.087 26.313-186.36 25.934-195.834 25.809C54.38 139.205 98.678 84.573 157.941 56.62zM36.17 248.323c0-2.166.043-4.322.108-6.473 9.268.19 111.92 1.513 217.706-30.146 6.064 11.868 11.857 23.915 17.174 35.949-76.599 21.575-146.194 83.527-180.531 142.306C56.794 352.405 36.17 302.73 36.17 248.323zm81.807 167.113c22.127-45.233 82.178-103.622 167.579-132.756 29.74 77.283 42.039 142.053 45.189 160.638-68.112 29.013-150.015 21.053-212.768-27.882zm248.38 8.489c-2.171-12.886-13.446-74.897-41.152-151.033 66.38-10.626 124.7 6.768 131.947 9.055-9.442 58.941-43.273 109.844-90.795 141.978z"/></symbol><symbol viewBox="0 0 9 18" id="facebook" xmlns="http://www.w3.org/2000/svg"><defs><path id="fa" d="M1434.985 3970.992h-3.998v-8.496h-1.998v-3.274h1.998v-1.964c0-2.67 1.128-4.258 4.332-4.258h2.669v3.273h-1.667c-1.248 0-1.331.458-1.331 1.311l-.005 1.638h3.022l-.354 3.274h-2.668z"/></defs><use xlink:href="#fa" transform="translate(-1429 -3953)"/></symbol><symbol class="gsvg-inline--fa gfa-facebook-square gfa-w-14" viewBox="0 0 448 448" id="facebook-square-fa" xmlns="http://www.w3.org/2000/svg"><path d="M448 48v352c0 26.5-21.5 48-48 48h-85.3V270.8h60.6l8.7-67.6h-69.3V160c0-19.6 5.4-32.9 33.5-32.9H384V66.7c-6.2-.8-27.4-2.7-52.2-2.7-51.6 0-87 31.5-87 89.4v49.9H184v67.6h60.9V448H48c-26.5 0-48-21.5-48-48V48C0 21.5 21.5 0 48 0h352c26.5 0 48 21.5 48 48z"/></symbol><symbol viewBox="0 0 24 15" id="google" xmlns="http://www.w3.org/2000/svg"><defs><path id="ha" d="M1469.615 3969c-4.205 0-7.614-3.358-7.614-7.5 0-4.142 3.409-7.5 7.614-7.5a7.65 7.65 0 0 1 5.137 1.966l-2.244 2.164a4.502 4.502 0 0 0-2.893-1.044c-2.475 0-4.482 1.976-4.482 4.414 0 2.438 2.007 4.414 4.482 4.414a4.481 4.481 0 0 0 4.19-2.848h-4.286v-3.133h7.543c.11.506.167 1.03.167 1.567 0 4.142-3.409 7.5-7.614 7.5zm16.385-6.93h-2.65v2.61h-1.928v-2.61h-2.65v-1.9h2.65v-2.61h1.928v2.61h2.65z"/></defs><use xlink:href="#ha" transform="translate(-1462 -3954)"/></symbol><symbol class="isvg-inline--fa ifa-instagram ifa-w-14" viewBox="0 0 448.25 448.15" id="instagram-fa" xmlns="http://www.w3.org/2000/svg"><path d="M224.175 109.175c-63.6 0-114.9 51.3-114.9 114.9 0 63.6 51.3 114.9 114.9 114.9 63.6 0 114.9-51.3 114.9-114.9 0-63.6-51.3-114.9-114.9-114.9zm0 189.6c-41.1 0-74.7-33.5-74.7-74.7s33.5-74.7 74.7-74.7 74.7 33.5 74.7 74.7-33.6 74.7-74.7 74.7zm146.4-194.3c0 14.9-12 26.8-26.8 26.8-14.9 0-26.8-12-26.8-26.8s12-26.8 26.8-26.8 26.8 12 26.8 26.8zm76.1 27.2c-1.7-35.9-9.9-67.7-36.2-93.9-26.2-26.2-58-34.4-93.9-36.2-37-2.1-147.9-2.1-184.9 0-35.8 1.7-67.6 9.9-93.9 36.1-26.3 26.2-34.4 58-36.2 93.9-2.1 37-2.1 147.9 0 184.9 1.7 35.9 9.9 67.7 36.2 93.9 26.3 26.2 58 34.4 93.9 36.2 37 2.1 147.9 2.1 184.9 0 35.9-1.7 67.7-9.9 93.9-36.2 26.2-26.2 34.4-58 36.2-93.9 2.1-37 2.1-147.8 0-184.8zm-47.8 224.5c-7.8 19.6-22.9 34.7-42.6 42.6-29.5 11.7-99.5 9-132.1 9-32.6 0-102.7 2.6-132.1-9-19.6-7.8-34.7-22.9-42.6-42.6-11.7-29.5-9-99.5-9-132.1 0-32.6-2.6-102.7 9-132.1 7.8-19.6 22.9-34.7 42.6-42.6 29.5-11.7 99.5-9 132.1-9 32.6 0 102.7-2.6 132.1 9 19.6 7.8 34.7 22.9 42.6 42.6 11.7 29.5 9 99.5 9 132.1 0 32.6 2.7 102.7-9 132.1z"/></symbol><symbol viewBox="0 0 56 56" id="menu" xmlns="http://www.w3.org/2000/svg"><path d="M28 0C12.561 0 0 12.561 0 28s12.561 28 28 28 28-12.561 28-28S43.439 0 28 0zm0 54C13.663 54 2 42.336 2 28S13.663 2 28 2s26 11.664 26 26-11.663 26-26 26z"/><path d="M15 17h26a1 1 0 1 0 0-2H15a1 1 0 1 0 0 2zm30 14H11a1 1 0 1 0 0 2h34a1 1 0 1 0 0-2zm0-8H11a1 1 0 1 0 0 2h34a1 1 0 1 0 0-2zm-4 16H15a1 1 0 1 0 0 2h26a1 1 0 1 0 0-2z"/></symbol><symbol class="ksvg-inline--fa kfa-pinterest kfa-w-16" viewBox="0 0 496 496" id="pinterest-fa" xmlns="http://www.w3.org/2000/svg"><path d="M496 248c0 137-111 248-248 248-25.6 0-50.2-3.9-73.4-11.1 10.1-16.5 25.2-43.5 30.8-65 3-11.6 15.4-59 15.4-59 8.1 15.4 31.7 28.5 56.8 28.5 74.8 0 128.7-68.8 128.7-154.3 0-81.9-66.9-143.2-152.9-143.2-107 0-163.9 71.8-163.9 150.1 0 36.4 19.4 81.7 50.3 96.1 4.7 2.2 7.2 1.2 8.3-3.3.8-3.4 5-20.3 6.9-28.1.6-2.5.3-4.7-1.7-7.1-10.1-12.5-18.3-35.3-18.3-56.6 0-54.7 41.4-107.6 112-107.6 60.9 0 103.6 41.5 103.6 100.9 0 67.1-33.9 113.6-78 113.6-24.3 0-42.6-20.1-36.7-44.8 7-29.5 20.5-61.3 20.5-82.6 0-19-10.2-34.9-31.4-34.9-24.9 0-44.9 25.7-44.9 60.2 0 22 7.4 36.8 7.4 36.8s-24.5 103.8-29 123.2c-5 21.4-3 51.6-.9 71.2C65.4 442.9 0 353.1 0 248 0 111 111 0 248 0s248 111 248 248z"/></symbol><symbol class="lsvg-inline--fa lfa-skype lfa-w-14" viewBox="0 0 447.901 447.9" id="skype-fa" xmlns="http://www.w3.org/2000/svg"><path d="M424.7 267.8c2.9-14 4.7-28.9 4.7-43.8 0-113.5-91.9-205.3-205.3-205.3-14.9 0-29.7 1.7-43.8 4.7C161.3 8.7 137.7 0 112 0 50.2 0 0 50.2 0 112c0 25.7 8.7 49.3 23.3 68.2-2.9 14-4.7 28.9-4.7 43.8 0 113.5 91.9 205.3 205.3 205.3 14.9 0 29.7-1.7 43.8-4.7 19 14.6 42.6 23.3 68.2 23.3 61.8 0 112-50.2 112-112 .1-25.6-8.6-49.2-23.2-68.1zm-194.6 91.5c-65.6 0-120.5-29.2-120.5-65 0-16 9-30.6 29.5-30.6 31.2 0 34.1 44.9 88.1 44.9 25.7 0 42.3-11.4 42.3-26.3 0-18.7-16-21.6-42-28-62.5-15.4-117.8-22-117.8-87.2 0-59.2 58.6-81.1 109.1-81.1 55.1 0 110.8 21.9 110.8 55.4 0 16.9-11.4 31.8-30.3 31.8-28.3 0-29.2-33.5-75-33.5-25.7 0-42 7-42 22.5 0 19.8 20.8 21.8 69.1 33 41.4 9.3 90.7 26.8 90.7 77.6 0 59.1-57.1 86.5-112 86.5z"/></symbol><symbol viewBox="0 0 0 0" id="sprite" xmlns="http://www.w3.org/2000/svg"/><symbol viewBox="0 0 10 16" id="tumbler" xmlns="http://www.w3.org/2000/svg"><defs><path id="na" d="M1518.497 3966.783c-.291.142-.848.266-1.264.277-1.253.034-1.245-1.182-1.256-1.86v-4.8H1519v-2.4h-3.023v-4l-2.878.005c-.037 0-.103.033-.112.12-.134 1.246-.612 3-2.987 3.875v2.403l1.98-.003v5.6c0 1.79 1.147 4.061 4.558 4.002 1.151-.02 2.43-.513 2.712-.937z"/></defs><use xlink:href="#na" transform="translate(-1510 -3954)"/></symbol><symbol viewBox="0 0 17 14" id="twitter" xmlns="http://www.w3.org/2000/svg"><defs><path id="oa" d="M1401 3956.658a6.954 6.954 0 0 1-2.003.557 3.535 3.535 0 0 0 1.533-1.955 6.91 6.91 0 0 1-2.215.857 3.459 3.459 0 0 0-2.545-1.116c-1.926 0-3.488 1.582-3.488 3.534 0 .278.032.547.09.806-2.897-.147-5.467-1.555-7.186-3.693-.3.522-.472 1.13-.472 1.777 0 1.226.616 2.308 1.551 2.941a3.437 3.437 0 0 1-1.58-.442v.044c0 1.713 1.202 3.14 2.798 3.466a3.476 3.476 0 0 1-1.575.06c.444 1.404 1.732 2.426 3.257 2.455a6.938 6.938 0 0 1-5.163 1.463 9.778 9.778 0 0 0 5.346 1.588c6.414 0 9.922-5.385 9.922-10.055 0-.154-.004-.305-.01-.457a7.137 7.137 0 0 0 1.74-1.83z"/></defs><use xlink:href="#oa" transform="translate(-1384 -3955)"/></symbol><symbol class="psvg-inline--fa pfa-twitter pfa-w-16" viewBox="0 0 511.998 415.837" id="twitter-fa" xmlns="http://www.w3.org/2000/svg"><path d="M459.37 103.634c.325 4.548.325 9.097.325 13.645 0 138.72-105.583 298.558-298.558 298.558-59.452 0-114.68-17.219-161.137-47.106 8.447.974 16.568 1.299 25.34 1.299 49.055 0 94.213-16.568 130.274-44.832-46.132-.975-84.792-31.188-98.112-72.772 6.498.974 12.995 1.624 19.818 1.624 9.421 0 18.843-1.3 27.614-3.573-48.081-9.747-84.143-51.98-84.143-102.985v-1.299c13.969 7.797 30.214 12.67 47.431 13.319-28.264-18.843-46.781-51.005-46.781-87.391 0-19.492 5.197-37.36 14.294-52.954C87.39 82.842 165.035 124.425 252.1 128.974c-1.624-7.797-2.599-15.918-2.599-24.04C249.501 47.106 296.283 0 354.435 0c30.213 0 57.502 12.67 76.67 33.137 23.715-4.548 46.456-13.32 66.599-25.34-7.798 24.366-24.366 44.833-46.132 57.827 21.117-2.273 41.584-8.122 60.426-16.243-14.292 20.791-32.161 39.308-52.628 54.253z"/></symbol></svg>