<svg xmlns="http://www.w3.org/2000/svg" xmlns:xlink="http://www.w3.org/1999/xlink" width="17" height="14" viewBox="0 0 17 14"><defs><path id="17r2a" d="M1401 3956.658c-.625.281-1.298.47-2.003.557a3.535 3.535 0 0 0 1.533-1.955 6.91 6.91 0 0 1-2.215.857 3.459 3.459 0 0 0-2.545-1.116c-1.926 0-3.488 1.582-3.488 3.534 0 .278.032.547.09.806-2.897-.147-5.467-1.555-7.186-3.693-.3.522-.472 1.13-.472 1.777 0 1.226.616 2.308 1.551 2.941a3.437 3.437 0 0 1-1.58-.442v.044c0 1.713 1.202 3.14 2.798 3.466a3.476 3.476 0 0 1-1.575.06c.444 1.404 1.732 2.426 3.257 2.455a6.938 6.938 0 0 1-5.163 1.463 9.778 9.778 0 0 0 5.346 1.588c6.414 0 9.922-5.385 9.922-10.055 0-.154-.004-.305-.01-.457a7.137 7.137 0 0 0 1.74-1.83z"/></defs><g><g transform="translate(-1384 -3955)"><use fill="#a8acb9" xlink:href="#17r2a"/></g></g></svg>